<?xml version="1.0" encoding="iso-8859-1"?>
<!-- Generator: Adobe Illustrator 16.0.0, SVG Export Plug-In . SVG Version: 6.00 Build 0)  -->
<!DOCTYPE svg PUBLIC "-//W3C//DTD SVG 1.1//EN" "http://www.w3.org/Graphics/SVG/1.1/DTD/svg11.dtd">
<svg version="1.1" id="Capa_1" xmlns="http://www.w3.org/2000/svg" xmlns:xlink="http://www.w3.org/1999/xlink" x="0px" y="0px"
	 width="50px" height="50px" viewBox="0 0 50 50" style="enable-background:new 0 0 50 50;" xml:space="preserve">
<g>
	<g>
		<path d="M45.258,1.37c-4.535-2.62-10.336-1.065-12.953,3.47c-0.849,1.469,0.303,3.456,2.334,5.318
			C31.755,8.637,28.479,7.766,25,7.766c-3.479,0-6.755,0.871-9.638,2.393c2.031-1.862,3.182-3.849,2.334-5.318
			C15.078,0.305,9.278-1.25,4.742,1.37C0.208,3.986-1.346,9.789,1.271,14.324c1.224,2.118,5.463,1.176,9.364-0.892l0.058,0.101
			c-3.943,3.774-6.414,9.075-6.414,14.954c0,5.553,2.207,10.59,5.774,14.313l-5.521,5.93l1.173,1.174l7.479-4.417
			c3.354,2.34,7.424,3.723,11.816,3.723c4.393,0,8.462-1.383,11.816-3.723l7.479,4.417l1.173-1.174l-5.521-5.931
			c3.567-3.724,5.774-8.761,5.774-14.313c0-5.878-2.472-11.179-6.414-14.954l0.058-0.101c3.901,2.068,8.14,3.01,9.364,0.892
			C51.347,9.789,49.792,3.986,45.258,1.37z M25,12.739c8.684,0,15.748,7.063,15.748,15.748c0,8.683-7.064,15.749-15.748,15.749
			c-8.683,0-15.748-7.067-15.748-15.75C9.252,19.802,16.317,12.739,25,12.739z"/>
		<path d="M25,32.278c2.096,0,3.793-1.699,3.793-3.793c0-1.719-1.15-3.154-2.719-3.621v-8.628h-2.148v8.628
			c-1.225,0.365-2.182,1.321-2.545,2.545h-5.266v2.148h5.266C21.846,31.127,23.281,32.278,25,32.278z"/>
	</g>
</g>
<g>
</g>
<g>
</g>
<g>
</g>
<g>
</g>
<g>
</g>
<g>
</g>
<g>
</g>
<g>
</g>
<g>
</g>
<g>
</g>
<g>
</g>
<g>
</g>
<g>
</g>
<g>
</g>
<g>
</g>
</svg>
